<?xml version="1.0" encoding="UTF-8" standalone="no"?>
<svg
   xmlns:dc="http://purl.org/dc/elements/1.1/"
   xmlns:cc="http://creativecommons.org/ns#"
   xmlns:rdf="http://www.w3.org/1999/02/22-rdf-syntax-ns#"
   xmlns:svg="http://www.w3.org/2000/svg"
   xmlns="http://www.w3.org/2000/svg"
   xmlns:sodipodi="http://sodipodi.sourceforge.net/DTD/sodipodi-0.dtd"
   xmlns:inkscape="http://www.inkscape.org/namespaces/inkscape"
   id="svg2"
   xml:space="preserve"
   viewBox="0 0 32 32"
   version="1.1"
   enable-background="new 0 0 32 32"
   inkscape:version="0.91 r13725"
   sodipodi:docname="heart.svg"><sodipodi:namedview
     pagecolor="#ffffff"
     bordercolor="#666666"
     borderopacity="1"
     objecttolerance="10"
     gridtolerance="10"
     guidetolerance="10"
     inkscape:pageopacity="0"
     inkscape:pageshadow="2"
     inkscape:window-width="1920"
     inkscape:window-height="946"
     id="namedview13"
     showgrid="false"
     inkscape:zoom="14.75"
     inkscape:cx="15.240409"
     inkscape:cy="14.795911"
     inkscape:window-x="0"
     inkscape:window-y="0"
     inkscape:window-maximized="1"
     inkscape:current-layer="svg2" /><metadata
     id="metadata23"><rdf:RDF><cc:Work
         rdf:about=""><dc:format>image/svg+xml</dc:format><dc:type
           rdf:resource="http://purl.org/dc/dcmitype/StillImage" /><dc:title></dc:title></cc:Work></rdf:RDF></metadata><defs
     id="defs21" /><g
     style="fill:#414752;fill-opacity:1"
     id="g6"><g
       style="fill:#414752;fill-opacity:1"
       id="Shopping_10_107_"><g
         style="fill:#414752;fill-opacity:1"
         id="g9"><g
           style="fill:#414752;fill-opacity:1"
           id="g11"><g
             style="fill:#414752;fill-opacity:1"
             id="g13"><g
               style="fill:#414752;fill-opacity:1"
               id="g15"><path
                 d="M 16,1 C 24.271,1 31,7.729 31,16 31,24.271 24.271,31 16,31 7.729,31 1,24.271 1,16 1,7.729 7.729,1 16,1 M 16,0 C 7.163,0 0,7.164 0,16 0,24.836 7.163,32 16,32 24.837,32 32,24.837 32,16 32,7.163 24.836,0 16,0 l 0,0 z"
                 id="path17"
                 style="fill:#414752;fill-opacity:1" /></g></g></g></g></g></g><path
     style="fill:#414752;fill-opacity:1"
     id="path3"
     d="m 19.015891,9.3078218 c -1.320314,0 -2.53125,0.617184 -3.312501,1.6328112 -0.781252,-1.0156272 -1.992188,-1.6328112 -3.312502,-1.6328112 -2.308594,0 -4.1874981,1.8867192 -4.1874981,4.2070312 0,1.089844 0.4140609,2.124998 1.1679703,2.914059 l 5.9062498,5.964844 0.42578,0.429689 0.425779,-0.429689 5.792972,-5.851561 c 0.820312,-0.79297 1.281249,-1.871095 1.281249,-3.027342 0,-2.320312 -1.878906,-4.2070312 -4.187499,-4.2070312 l 0,0 z"
     inkscape:connector-curvature="0" /></svg>